<?xml version="1.0" encoding="utf-8"?>
<!-- Generator: Adobe Illustrator 20.1.0, SVG Export Plug-In . SVG Version: 6.00 Build 0)  -->
<svg version="1.1" id="Layer_1" xmlns="http://www.w3.org/2000/svg" xmlns:xlink="http://www.w3.org/1999/xlink" x="0px" y="0px"
	 viewBox="0 0 107.3 107.7" style="enable-background:new 0 0 107.3 107.7;" xml:space="preserve">
<style type="text/css">
	.st0{fill:#193F4E;}
	.st1{fill:#FFFFFF;}
</style>
<g id="Twitter_5_">
	<path class="st0" d="M53.7,15.8c-21,0-38,17-38,38s17,38,38,38s38-17,38-38S74.7,15.8,53.7,15.8z"/>
</g>
<g>
	<path class="st1" d="M69.6,38H37.9c-2.7,0-4.9,2.1-4.9,4.7v22.1c0,2.6,2.2,4.7,4.9,4.7h31.8c2.7,0,4.9-2.1,4.9-4.7V42.8
		C74.6,40.2,72.4,38,69.6,38L69.6,38z M69.6,65.5H37.9c-0.4,0-0.8-0.3-0.8-0.6V45.7l14.4,12.1c0.3,0.2,0.7,0.4,1.1,0.4l2.4,0
		c0.4,0,0.8-0.1,1.1-0.4l14.4-12.1v19.2C70.4,65.2,70,65.5,69.6,65.5L69.6,65.5z M53.7,54.1l-14-11.8h27.9L53.7,54.1z M53.7,54.1"/>
</g>
</svg>
