<?xml version="1.0" encoding="utf-8"?>
<!-- Generator: Adobe Illustrator 20.1.0, SVG Export Plug-In . SVG Version: 6.00 Build 0)  -->
<svg version="1.1" id="Layer_1" xmlns="http://www.w3.org/2000/svg" xmlns:xlink="http://www.w3.org/1999/xlink" x="0px" y="0px"
	 viewBox="0 0 107.3 107.7" style="enable-background:new 0 0 107.3 107.7;" xml:space="preserve">
<style type="text/css">
	.st0{fill:#FFFFFF;stroke:#000000;stroke-miterlimit:10;}
	.st1{fill:#193F4E;}
</style>
<circle class="st0" cx="52.7" cy="55" r="35"/>
<g id="Facebook_4_">
	<path class="st1" d="M53.2,16.7c-21,0-38,17-38,38s17,38,38,38s38-17,38-38S74.2,16.7,53.2,16.7z M71.7,70.7c0,1.1-0.5,2.3-1.7,2.3
		h-9.3V59h4.8l0.7-6h-5.5v-3.6c0-1.6,0.4-2.4,2.7-2.4h3.3v-5.2c-1-0.1-2.6-0.2-4.6-0.2c-4.2,0-7.4,2.6-7.4,7.3V53h-5v6h5v14H37.4
		c-1.1,0-1.7-1.2-1.7-2.3V38c0-1.1,0.6-2,1.7-2h32.7c1.1,0,1.7,0.9,1.7,2v32.7H71.7z"/>
</g>
</svg>
