<?xml version="1.0" encoding="utf-8"?>
<!-- Generator: Adobe Illustrator 20.1.0, SVG Export Plug-In . SVG Version: 6.00 Build 0)  -->
<svg version="1.1" id="Layer_1" xmlns="http://www.w3.org/2000/svg" xmlns:xlink="http://www.w3.org/1999/xlink" x="0px" y="0px"
	 viewBox="0 0 107.3 107.7" style="enable-background:new 0 0 107.3 107.7;" xml:space="preserve">
<style type="text/css">
	.st0{fill:#193F4E;}
	.st1{fill:#FFFFFF;}
</style>
<path class="st0" d="M53.7,17.4c-21,0-38,17-38,38s17,38,38,38s38-17,38-38S74.7,17.4,53.7,17.4z"/>
<g>
	<path class="st1" d="M53.7,29.7c-10.4,0-18.9,8.5-18.9,18.9c0,2.7,0.6,5.3,1.7,7.7c4.7,10.4,13.8,21.3,16.5,24.4
		c0.2,0.2,0.5,0.4,0.8,0.4c0.3,0,0.6-0.1,0.8-0.4c2.7-3.1,11.8-14,16.5-24.4c1.1-2.4,1.7-5,1.7-7.7C72.7,38.2,64.2,29.7,53.7,29.7
		L53.7,29.7z M53.7,58.5c-5.4,0-9.8-4.4-9.8-9.8c0-5.4,4.4-9.8,9.8-9.8c5.4,0,9.8,4.4,9.8,9.8C63.6,54.1,59.1,58.5,53.7,58.5
		L53.7,58.5z M53.7,58.5"/>
</g>
</svg>
