<?xml version="1.0" encoding="utf-8"?>
<!-- Generator: Adobe Illustrator 20.1.0, SVG Export Plug-In . SVG Version: 6.00 Build 0)  -->
<svg version="1.1" id="Layer_1" xmlns="http://www.w3.org/2000/svg" xmlns:xlink="http://www.w3.org/1999/xlink" x="0px" y="0px"
	 viewBox="0 0 107.3 107.7" style="enable-background:new 0 0 107.3 107.7;" xml:space="preserve">
<style type="text/css">
	.st0{fill:#FFFFFF;}
	.st1{fill:#193F4E;}
</style>
<circle class="st0" cx="54" cy="55" r="34"/>
<g id="Instagram_5_">
	<path class="st1" d="M47.4,54.3c0-3.9,3.2-7,7-7c3.9,0,7.1,3.1,7.1,7s-3.2,7-7.1,7C50.5,61.4,47.4,58.2,47.4,54.3z"/>
	<path class="st1" d="M67.9,45.1c0,0.6-0.5,1.2-1.1,1.2h-3.7c-0.6,0-1.2-0.5-1.2-1.2v-3.7c0-0.6,0.5-1.2,1.2-1.2h3.7
		c0.6,0,1.1,0.5,1.1,1.2V45.1z"/>
	<path class="st1" d="M64.7,51.3h4.2V68c0,0.6-0.1,1.3-0.8,1.3H40.6c-0.6,0-0.7-0.6-0.7-1.3V51.3h4.2c-0.6,0-0.8,2.2-0.8,3.3
		c0,6.1,5,11,11.2,11s11.2-4.8,11.2-11C65.6,53.6,65.4,51.3,64.7,51.3z"/>
	<path class="st1" d="M53.4,16.4c-21,0-38,17-38,38s17,38,38,38s38-17,38-38S74.4,16.4,53.4,16.4z M72.9,68.3c0,2.4-2.1,4-4.5,4h-28
		c-2.4,0-4.5-1.6-4.5-4v-28c0-2.4,2.1-4,4.5-4h28c2.4,0,4.5,1.6,4.5,4V68.3z"/>
</g>
</svg>
