<?xml version="1.0" encoding="utf-8"?>
<!-- Generator: Adobe Illustrator 20.1.0, SVG Export Plug-In . SVG Version: 6.00 Build 0)  -->
<svg version="1.1" id="Layer_1" xmlns="http://www.w3.org/2000/svg" xmlns:xlink="http://www.w3.org/1999/xlink" x="0px" y="0px"
	 viewBox="0 0 107.3 107.7" style="enable-background:new 0 0 107.3 107.7;" xml:space="preserve">
<style type="text/css">
	.st0{fill:#193F4E;}
	.st1{fill:#FFFFFF;}
</style>
<path class="st0" d="M54,16c-21,0-38,17-38,38s17,38,38,38s38-17,38-38S75,16,54,16z"/>
<g>
	<g>
		<path class="st1" d="M54.2,43.2c6.9,0.1,11.3-0.4,11.9,7.3h8.5C74.5,38.6,64.1,37,54,37c-10.2,0-20.5,1.6-20.5,13.5h8.4
			C42.5,42.7,47.3,43.2,54.2,43.2L54.2,43.2z M54.2,43.2"/>
	</g>
	<path class="st1" d="M37.6,54.4c2.1,0,3.8,0.1,4.2-1.9c0.1-0.3,0.1-0.6,0.1-0.9h-8.5C33.4,54.5,35.3,54.4,37.6,54.4L37.6,54.4z
		 M37.6,54.4"/>
	<path class="st1" d="M66.1,51.5L66.1,51.5c-0.1,0.4,0,0.7,0,0.9c0.4,1.9,2.1,1.8,4.2,1.8c2.3,0,4.2,0.2,4.2-2.7H66.1z M66.1,51.5"
		/>
	<path class="st1" d="M62,49.5v-1.2c0-0.5-0.6-0.6-1.4-0.6h-1.2c-0.8,0-1.4,0-1.4,0.6v1.8h-8.8v-1.8c0-0.5-0.6-0.6-1.4-0.6h-1.2
		c-0.8,0-1.4,0-1.4,0.6v2.2c-2,2.1-8.6,11-8.8,12l0,7.2c0,0.7,0.5,1.2,1.2,1.2h32c0.7,0,1.2-0.5,1.2-1.2v-7.2c-0.2-1-6.8-9.9-8.8-12
		V49.5z M48.7,63.5c-0.6,0-1.2-0.5-1.2-1.2c0-0.6,0.5-1.2,1.2-1.2c0.6,0,1.2,0.5,1.2,1.2C49.9,63,49.4,63.5,48.7,63.5L48.7,63.5z
		 M48.7,59.5c-0.6,0-1.2-0.5-1.2-1.2c0-0.6,0.5-1.2,1.2-1.2c0.6,0,1.2,0.5,1.2,1.2C49.9,59,49.4,59.5,48.7,59.5L48.7,59.5z
		 M48.7,55.5c-0.6,0-1.2-0.5-1.2-1.2c0-0.6,0.5-1.2,1.2-1.2c0.6,0,1.2,0.5,1.2,1.2C49.9,55,49.4,55.5,48.7,55.5L48.7,55.5z
		 M53.5,63.5c-0.6,0-1.2-0.5-1.2-1.2c0-0.6,0.5-1.2,1.2-1.2c0.6,0,1.2,0.5,1.2,1.2C54.7,63,54.2,63.5,53.5,63.5L53.5,63.5z
		 M53.5,59.5c-0.6,0-1.2-0.5-1.2-1.2c0-0.6,0.5-1.2,1.2-1.2c0.6,0,1.2,0.5,1.2,1.2C54.7,59,54.2,59.5,53.5,59.5L53.5,59.5z
		 M53.5,55.5c-0.6,0-1.2-0.5-1.2-1.2c0-0.6,0.5-1.2,1.2-1.2c0.6,0,1.2,0.5,1.2,1.2C54.7,55,54.2,55.5,53.5,55.5L53.5,55.5z
		 M58.3,63.5c-0.6,0-1.2-0.5-1.2-1.2c0-0.6,0.5-1.2,1.2-1.2c0.6,0,1.2,0.5,1.2,1.2C59.5,63,59,63.5,58.3,63.5L58.3,63.5z M58.3,59.5
		c-0.6,0-1.2-0.5-1.2-1.2c0-0.6,0.5-1.2,1.2-1.2c0.6,0,1.2,0.5,1.2,1.2C59.5,59,59,59.5,58.3,59.5L58.3,59.5z M58.3,55.5
		c-0.6,0-1.2-0.5-1.2-1.2c0-0.6,0.5-1.2,1.2-1.2c0.6,0,1.2,0.5,1.2,1.2C59.5,55,59,55.5,58.3,55.5L58.3,55.5z M58.3,55.5"/>
</g>
</svg>
